<?xml version="1.0" encoding="utf-8"?>
<!-- Generator: Adobe Illustrator 16.2.0, SVG Export Plug-In . SVG Version: 6.00 Build 0)  -->
<!DOCTYPE svg PUBLIC "-//W3C//DTD SVG 1.1//EN" "http://www.w3.org/Graphics/SVG/1.1/DTD/svg11.dtd">
<svg version="1.1" id="Layer_1" xmlns="http://www.w3.org/2000/svg" xmlns:xlink="http://www.w3.org/1999/xlink" x="0px" y="0px"
	 width="113.39px" height="113.391px" viewBox="0 0 113.39 113.391" enable-background="new 0 0 113.39 113.391"
	 xml:space="preserve">
<g>
	<path fill="#E5E5E5" d="M17.626,23.622c1.254,0.958,3.047,0.717,4.004-0.537c8.426-11.04,21.207-17.371,35.064-17.371
		s26.638,6.331,35.064,17.371c0.563,0.736,1.412,1.123,2.273,1.123c0.604,0,1.213-0.19,1.73-0.586
		c1.254-0.957,1.494-2.749,0.537-4.004C86.784,7.151,72.348,0,56.695,0S26.606,7.151,17.089,19.618
		C16.132,20.873,16.373,22.665,17.626,23.622z"/>
	<path fill="#E5E5E5" d="M87.06,38.86c0,4.92,4.004,8.922,8.922,8.922c4.92,0,8.922-4.002,8.922-8.922
		c0-4.919-4.002-8.922-8.922-8.922C91.064,29.938,87.06,33.941,87.06,38.86z"/>
	<path fill="#E5E5E5" d="M105.113,50.743c-0.02-0.007-2.268-0.696-2.268-0.696c-0.814-0.249-1.699-0.096-2.38,0.414l-4.483,3.356
		L91.5,50.461c-0.682-0.51-1.566-0.663-2.379-0.414c0,0-2.248,0.689-2.269,0.696c-3.617,1.206-6.048,4.578-6.048,8.391v13.487
		c0,0.521,0.152,1.029,0.439,1.464l4.523,6.884v18.078c0,1.473,1.193,2.666,2.666,2.666h15.1c1.473,0,2.666-1.193,2.666-2.666
		V80.969l4.523-6.884c0.286-0.435,0.438-0.943,0.438-1.464V59.134C111.161,55.321,108.73,51.949,105.113,50.743L105.113,50.743z"/>
	<path fill="#E5E5E5" d="M17.407,47.782c4.919,0,8.922-4.002,8.922-8.922c0-4.919-4.003-8.922-8.922-8.922
		c-4.919,0-8.922,4.003-8.922,8.922C8.485,43.78,12.487,47.782,17.407,47.782z"/>
	<path fill="#E5E5E5" d="M26.538,50.743c-0.021-0.007-2.269-0.696-2.269-0.696c-0.814-0.249-1.698-0.096-2.379,0.414l-4.482,3.356
		l-4.483-3.356c-0.681-0.51-1.566-0.663-2.379-0.414c0,0-2.248,0.689-2.269,0.696c-3.617,1.206-6.047,4.578-6.047,8.391v13.487
		c0,0.521,0.152,1.029,0.438,1.464l4.523,6.884v18.078c0,1.473,1.193,2.666,2.666,2.666h15.1c1.473,0,2.666-1.193,2.666-2.666
		V80.969l4.523-6.884c0.286-0.435,0.438-0.943,0.438-1.464V59.134C32.585,55.321,30.154,51.949,26.538,50.743z"/>
	<path fill="#E5E5E5" d="M68.203,26.287c0-6.346-5.162-11.508-11.508-11.508c-6.345,0-11.508,5.162-11.508,11.508
		c0,6.345,5.163,11.507,11.508,11.507C63.041,37.794,68.203,32.632,68.203,26.287z"/>
	<path fill="#E5E5E5" d="M69.334,43.371l-0.019-0.006l-3.285-1.008c-0.518-0.159-1.071,0.115-1.258,0.626l-6.906,18.95
		c-0.398,1.093-1.945,1.093-2.343,0l-6.906-18.95c-0.15-0.412-0.54-0.672-0.958-0.672c-0.099,0-3.581,1.053-3.581,1.053
		c-4.196,1.397-6.999,5.287-6.999,9.686v20.046c0,0.199,0.059,0.394,0.167,0.56l7.207,10.967v27.748c0,0.563,0.457,1.02,1.02,1.02
		h22.442c0.564,0,1.021-0.456,1.021-1.02V84.622l7.206-10.967c0.108-0.166,0.167-0.36,0.167-0.56V52.997
		C76.31,48.618,73.496,44.734,69.334,43.371z"/>
	<path fill="#E5E5E5" d="M59.393,42.972c-0.285-0.311-0.702-0.468-1.124-0.468h-3.148c-0.422,0-0.839,0.157-1.125,0.468
		c-0.442,0.481-0.506,1.177-0.192,1.72l1.683,2.536l-0.788,6.646L56.25,58c0.151,0.415,0.738,0.415,0.89,0l1.552-4.126l-0.788-6.646
		l1.683-2.536C59.899,44.149,59.835,43.454,59.393,42.972z"/>
</g>
</svg>
