<?xml version="1.0" encoding="utf-8"?>
<!-- Generator: Adobe Illustrator 16.2.0, SVG Export Plug-In . SVG Version: 6.00 Build 0)  -->
<!DOCTYPE svg PUBLIC "-//W3C//DTD SVG 1.1//EN" "http://www.w3.org/Graphics/SVG/1.1/DTD/svg11.dtd">
<svg version="1.1" xmlns="http://www.w3.org/2000/svg" xmlns:xlink="http://www.w3.org/1999/xlink" x="0px" y="0px"
	 width="53.707px" height="53.707px" viewBox="0 0 53.707 53.707" enable-background="new 0 0 53.707 53.707" xml:space="preserve">
<g id="Capa_1">
	<g>
		<g>
			<g>
				<path fill="#E5E5E5" d="M5.881,40.27h41.943c1.658,0,2.996-1.342,2.996-2.996V7.313c0-2.206-1.787-3.994-3.992-3.994H6.879
					c-2.206,0-3.993,1.788-3.993,3.994v29.96C2.886,38.928,4.228,40.27,5.881,40.27z M7.886,8.319H45.82v26.95H7.886V8.319z"/>
				<path fill="#E5E5E5" d="M52.707,42.105H1c-0.553,0-1,0.447-1,1c0,0.975,0,2.479,0,3.701c0,1.979,2.009,3.58,4.486,3.58h44.735
					c2.478,0,4.485-1.604,4.485-3.58v-3.701C53.707,42.553,53.259,42.105,52.707,42.105z M33.091,47.248H20.614
					c-0.552,0-1-0.447-1-1c0-0.555,0.448-1,1-1h12.478c0.554,0,1,0.445,1,1C34.091,46.8,33.645,47.248,33.091,47.248z"/>
			</g>
		</g>
	</g>
</g>
<g id="Layer_2">
	<rect x="14.353" y="12.853" fill="#E5E5E5" width="5" height="16.5"/>
	<rect x="25.853" y="12.853" fill="#E5E5E5" width="5" height="16.5"/>
	<rect x="37.353" y="12.853" fill="#E5E5E5" width="5" height="16.5"/>
</g>
</svg>
