<?xml version="1.0" encoding="utf-8"?>
<!-- Generator: Adobe Illustrator 16.2.0, SVG Export Plug-In . SVG Version: 6.00 Build 0)  -->
<!DOCTYPE svg PUBLIC "-//W3C//DTD SVG 1.1//EN" "http://www.w3.org/Graphics/SVG/1.1/DTD/svg11.dtd">
<svg version="1.1" id="Capa_1" xmlns="http://www.w3.org/2000/svg" xmlns:xlink="http://www.w3.org/1999/xlink" x="0px" y="0px"
	 width="113.39px" height="113.391px" viewBox="0 0 113.39 113.391" enable-background="new 0 0 113.39 113.391"
	 xml:space="preserve">
<g>
	<g>
		<path fill="#E5E5E5" d="M109.988,51.593c-6.236-16.441-22.678-24.945-40.82-21.544C51.592,12.473,27.213,0.567,2.835,0
			C1.134,0,0,1.135,0,2.835c0.567,24.379,12.473,48.758,29.481,66.333c-2.835,17.575,5.103,34.584,21.544,40.82
			c-2.835-7.37-3.402-15.874-1.134-24.379c2.834,1.701,5.669,3.402,8.504,4.536c1.134,0.566,2.268,0.566,3.401-0.567L90.145,61.23
			c0.567-0.566,0.567-1.7,0-2.834c-1.134-2.835-2.835-5.67-4.536-7.938C94.113,48.191,102.618,48.758,109.988,51.593z
			 M47.624,47.624c-4.536,4.536-11.339,4.536-15.875,0c-4.536-4.535-4.536-11.339,0-15.874c4.536-4.536,11.339-4.536,15.875,0
			C52.159,36.285,52.159,43.089,47.624,47.624z"/>
	</g>
</g>
<g>
	<g>
		<path fill="#E5E5E5" d="M111.689,81.64L99.783,69.735c-2.268-2.268-5.67-2.268-7.938,0s-2.268,5.669,0,7.938l11.906,11.905
			c2.268,2.268,5.67,2.268,7.938,0S113.957,83.909,111.689,81.64z"/>
	</g>
</g>
<g>
	<g>
		<path fill="#E5E5E5" d="M89.578,103.752L77.671,91.845c-2.268-2.268-5.669-2.268-7.937,0c-2.269,2.269-2.269,5.67,0,7.938
			l11.905,11.906c2.268,2.268,5.67,2.268,7.938,0S91.845,106.019,89.578,103.752z"/>
	</g>
</g>
<g>
	<g>
		<path fill="#E5E5E5" d="M104.885,97.515L88.444,81.074c-2.268-2.268-5.669-2.268-7.937,0c-2.269,2.268-2.269,5.669,0,7.938
			l16.441,16.441c2.268,2.268,5.669,2.268,7.937,0C107.154,103.184,107.154,99.783,104.885,97.515z"/>
	</g>
</g>
</svg>
