<?xml version="1.0" encoding="utf-8"?>
<!-- Generator: Adobe Illustrator 16.2.0, SVG Export Plug-In . SVG Version: 6.00 Build 0)  -->
<!DOCTYPE svg PUBLIC "-//W3C//DTD SVG 1.1//EN" "http://www.w3.org/Graphics/SVG/1.1/DTD/svg11.dtd">
<svg version="1.1" id="Capa_1" xmlns="http://www.w3.org/2000/svg" xmlns:xlink="http://www.w3.org/1999/xlink" x="0px" y="0px"
	 width="113.39px" height="113.391px" viewBox="0 0 113.39 113.391" enable-background="new 0 0 113.39 113.391"
	 xml:space="preserve">
<g>
	<rect x="20.559" y="18.881" fill="#E5E5E5" width="30.211" height="6.39"/>
	<path fill="#E5E5E5" d="M91.488,26.071c1.055,0,2.082-0.427,2.827-1.172c0.74-0.745,1.165-1.772,1.165-2.821
		c0-1.055-0.426-2.082-1.165-2.827c-0.745-0.74-1.772-1.166-2.827-1.166c-1.049,0-2.076,0.426-2.822,1.166
		c-0.74,0.745-1.171,1.772-1.171,2.827c0,1.049,0.432,2.076,1.171,2.821C89.412,25.644,90.439,26.071,91.488,26.071z"/>
	<path fill="#E5E5E5" d="M77.113,26.071c1.055,0,2.082-0.427,2.827-1.172c0.74-0.745,1.165-1.772,1.165-2.821
		c0-1.055-0.426-2.082-1.165-2.827c-0.745-0.74-1.772-1.166-2.827-1.166c-1.049,0-2.076,0.426-2.822,1.166
		c-0.745,0.745-1.172,1.772-1.172,2.827c0,1.049,0.427,2.076,1.172,2.821C75.037,25.644,76.064,26.071,77.113,26.071z"/>
	<path fill="#E5E5E5" d="M62.738,26.071c1.054,0,2.082-0.427,2.827-1.172c0.74-0.745,1.165-1.772,1.165-2.821
		c0-1.055-0.426-2.082-1.165-2.827c-0.745-0.74-1.772-1.166-2.827-1.166c-1.049,0-2.076,0.426-2.822,1.166
		c-0.745,0.745-1.172,1.772-1.172,2.827c0,1.049,0.427,2.076,1.172,2.821C60.662,25.644,61.689,26.071,62.738,26.071z"/>
	<path fill="#E5E5E5" d="M0,5.685v102.019h113.39V5.685H0z M105.404,13.672V30.48H7.986V13.672H105.404z M7.986,99.719V38.467
		h97.417v61.252H7.986L7.986,99.719z"/>
	<path display="none" d="M33.241,77.051l-0.469,15.433l15.431-0.471L81.84,58.376l-14.962-14.96L33.241,77.051z M45.476,85.704
		l-6.112,0.187l0.186-6.113l16.883-16.882l5.926,5.926L45.476,85.704z M72.804,58.376l-5.927,5.927l-5.927-5.925l5.927-5.927
		L72.804,58.376z"/>
</g>
<text transform="matrix(1 0 0 1 23.1948 76.1951)" fill="#E5E5E5" font-family="'MyriadPro-Bold'" font-size="30">www</text>
</svg>
